<mxfile host="app.diagrams.net" agent="Mozilla/5.0 (X11; Linux x86_64; rv:131.0) Gecko/20100101 Firefox/131.0" version="24.8.1">
  <diagram name="Seite-1" id="jI7MvivBW4wJyojLt8Jf">
    <mxGraphModel dx="952" dy="637" grid="1" gridSize="10" guides="1" tooltips="1" connect="1" arrows="1" fold="1" page="1" pageScale="1" pageWidth="827" pageHeight="1169" math="0" shadow="0">
      <root>
        <mxCell id="0" />
        <mxCell id="1" parent="0" />
        <mxCell id="MTa_AIZH51s-TqAGsz_J-1" value="&lt;p style=&quot;margin:0px;margin-top:4px;margin-left:10px;text-align:left;&quot;&gt;&lt;b&gt;ibd&lt;/b&gt; [Block] Internal Logistics Sub-Sub-System&amp;nbsp; [Flow oriented view]&lt;br&gt;&lt;/p&gt;" style="html=1;shape=mxgraph.sysml.package;labelX=406;align=left;spacingLeft=10;overflow=fill;recursiveResize=0;" vertex="1" parent="1">
          <mxGeometry x="110" y="120" width="420" height="590" as="geometry" />
        </mxCell>
        <mxCell id="MTa_AIZH51s-TqAGsz_J-15" value="MES" style="html=1;shape=mxgraph.sysml.port1;fontStyle=1;whiteSpace=wrap;align=center;" vertex="1" parent="1">
          <mxGeometry x="510" y="240" width="160" height="60" as="geometry" />
        </mxCell>
        <mxCell id="MTa_AIZH51s-TqAGsz_J-16" value="&amp;lt;&amp;lt;full&amp;gt;&amp;gt;&lt;br&gt;data" style="strokeColor=inherit;fillColor=inherit;gradientColor=inherit;shape=rect;points=[[0,0.5,0]];html=1;resizable=1;align=right;verticalAlign=bottom;labelPosition=left;verticalLabelPosition=top;labelBackgroundColor=none;fontSize=10;paart=1;" vertex="1" parent="MTa_AIZH51s-TqAGsz_J-15">
          <mxGeometry y="20" width="20" height="20" as="geometry" />
        </mxCell>
        <mxCell id="MTa_AIZH51s-TqAGsz_J-40" value="" style="html=1;shape=mxgraph.sysml.port;sysMLPortType=doubleH;" vertex="1" parent="MTa_AIZH51s-TqAGsz_J-15">
          <mxGeometry y="20" width="20" height="20" as="geometry" />
        </mxCell>
        <mxCell id="MTa_AIZH51s-TqAGsz_J-17" value="&lt;div&gt;Shipping&amp;nbsp;&lt;/div&gt;&lt;div&gt;&amp;amp; Receiving&lt;/div&gt;" style="html=1;shape=mxgraph.sysml.port1;fontStyle=1;whiteSpace=wrap;align=center;" vertex="1" parent="1">
          <mxGeometry x="510" y="160" width="160" height="60" as="geometry" />
        </mxCell>
        <mxCell id="MTa_AIZH51s-TqAGsz_J-18" value="&lt;div&gt;&amp;lt;&amp;lt;full&amp;gt;&amp;gt;&lt;/div&gt;&lt;div&gt;products&lt;/div&gt;" style="strokeColor=inherit;fillColor=inherit;gradientColor=inherit;shape=rect;points=[[0,0.5,0]];html=1;resizable=1;align=right;verticalAlign=bottom;labelPosition=left;verticalLabelPosition=top;labelBackgroundColor=none;fontSize=10;paart=1;" vertex="1" parent="MTa_AIZH51s-TqAGsz_J-17">
          <mxGeometry y="20" width="20" height="20" as="geometry" />
        </mxCell>
        <mxCell id="MTa_AIZH51s-TqAGsz_J-33" value="" style="html=1;shape=mxgraph.sysml.port;sysMLPortType=doubleH;" vertex="1" parent="MTa_AIZH51s-TqAGsz_J-17">
          <mxGeometry y="20" width="20" height="20" as="geometry" />
        </mxCell>
        <mxCell id="MTa_AIZH51s-TqAGsz_J-19" value="&lt;div&gt;Quality&amp;nbsp;&lt;/div&gt;&lt;div&gt;Assurance&lt;/div&gt;" style="html=1;shape=mxgraph.sysml.port1;fontStyle=1;whiteSpace=wrap;align=center;" vertex="1" parent="1">
          <mxGeometry x="510" y="320" width="160" height="60" as="geometry" />
        </mxCell>
        <mxCell id="MTa_AIZH51s-TqAGsz_J-20" value="&lt;div&gt;&amp;lt;&amp;lt;full&amp;gt;&amp;gt;&lt;/div&gt;&lt;div&gt;products&lt;/div&gt;" style="strokeColor=inherit;fillColor=inherit;gradientColor=inherit;shape=mxgraph.sysml.port;html=1;resizable=1;align=right;verticalAlign=bottom;labelPosition=left;verticalLabelPosition=top;labelBackgroundColor=none;fontSize=10;paart=1;sysMLPortType=doubleH;" vertex="1" parent="MTa_AIZH51s-TqAGsz_J-19">
          <mxGeometry y="20" width="20" height="20" as="geometry" />
        </mxCell>
        <mxCell id="MTa_AIZH51s-TqAGsz_J-21" value="Warehousing" style="html=1;shape=mxgraph.sysml.port1;fontStyle=1;whiteSpace=wrap;align=center;" vertex="1" parent="1">
          <mxGeometry x="510" y="400" width="160" height="140" as="geometry" />
        </mxCell>
        <mxCell id="MTa_AIZH51s-TqAGsz_J-22" value="&lt;div&gt;&amp;lt;&amp;lt;full&amp;gt;&amp;gt;&lt;/div&gt;&lt;div&gt;products&lt;br&gt;&lt;/div&gt;" style="strokeColor=inherit;fillColor=inherit;gradientColor=inherit;shape=rect;points=[[0,0.5,0]];html=1;resizable=1;align=right;verticalAlign=bottom;labelPosition=left;verticalLabelPosition=top;labelBackgroundColor=none;fontSize=10;paart=1;" vertex="1" parent="MTa_AIZH51s-TqAGsz_J-21">
          <mxGeometry y="46.67" width="20" height="13.33" as="geometry" />
        </mxCell>
        <mxCell id="MTa_AIZH51s-TqAGsz_J-23" value="&lt;div&gt;&amp;lt;&amp;lt;full&amp;gt;&amp;gt;&lt;/div&gt;&lt;div&gt;materials&lt;/div&gt;" style="strokeColor=inherit;fillColor=inherit;gradientColor=inherit;shape=rect;points=[[0,0.5,0]];html=1;resizable=1;align=right;verticalAlign=bottom;labelPosition=left;verticalLabelPosition=top;labelBackgroundColor=none;fontSize=10;paart=1;" vertex="1" parent="MTa_AIZH51s-TqAGsz_J-21">
          <mxGeometry y="100" width="20" height="20" as="geometry" />
        </mxCell>
        <mxCell id="MTa_AIZH51s-TqAGsz_J-34" value="" style="html=1;shape=mxgraph.sysml.port;sysMLPortType=doubleH;" vertex="1" parent="MTa_AIZH51s-TqAGsz_J-21">
          <mxGeometry y="47" width="20" height="20" as="geometry" />
        </mxCell>
        <mxCell id="MTa_AIZH51s-TqAGsz_J-35" value="" style="html=1;shape=mxgraph.sysml.port;sysMLPortType=flowN;rotation=-90;" vertex="1" parent="MTa_AIZH51s-TqAGsz_J-21">
          <mxGeometry y="100" width="20" height="20" as="geometry" />
        </mxCell>
        <mxCell id="MTa_AIZH51s-TqAGsz_J-24" value="3D-Printing" style="html=1;shape=mxgraph.sysml.port1;fontStyle=1;whiteSpace=wrap;align=center;" vertex="1" parent="1">
          <mxGeometry x="510" y="550" width="160" height="140" as="geometry" />
        </mxCell>
        <mxCell id="MTa_AIZH51s-TqAGsz_J-25" value="&lt;div&gt;&amp;lt;&amp;lt;full&amp;gt;&amp;gt;&lt;/div&gt;&lt;div&gt;products&lt;br&gt;&lt;/div&gt;" style="strokeColor=inherit;fillColor=inherit;gradientColor=inherit;shape=rect;points=[[0,0.5,0]];html=1;resizable=1;align=right;verticalAlign=bottom;labelPosition=left;verticalLabelPosition=top;labelBackgroundColor=none;fontSize=10;paart=1;" vertex="1" parent="MTa_AIZH51s-TqAGsz_J-24">
          <mxGeometry y="46.67" width="20" height="13.33" as="geometry" />
        </mxCell>
        <mxCell id="MTa_AIZH51s-TqAGsz_J-26" value="&lt;div&gt;&amp;lt;&amp;lt;full&amp;gt;&amp;gt;&lt;/div&gt;&lt;div&gt;materials&lt;/div&gt;" style="strokeColor=inherit;fillColor=inherit;gradientColor=inherit;shape=rect;points=[[0,0.5,0]];html=1;resizable=1;align=right;verticalAlign=bottom;labelPosition=left;verticalLabelPosition=top;labelBackgroundColor=none;fontSize=10;paart=1;" vertex="1" parent="MTa_AIZH51s-TqAGsz_J-24">
          <mxGeometry y="100" width="20" height="20" as="geometry" />
        </mxCell>
        <mxCell id="MTa_AIZH51s-TqAGsz_J-37" value="" style="html=1;shape=mxgraph.sysml.port;sysMLPortType=flowN;rotation=90;" vertex="1" parent="MTa_AIZH51s-TqAGsz_J-24">
          <mxGeometry y="100" width="20" height="20" as="geometry" />
        </mxCell>
        <mxCell id="MTa_AIZH51s-TqAGsz_J-39" value="" style="html=1;shape=mxgraph.sysml.port;sysMLPortType=flowN;rotation=-90;" vertex="1" parent="MTa_AIZH51s-TqAGsz_J-24">
          <mxGeometry y="46.66999999999996" width="20" height="20" as="geometry" />
        </mxCell>
      </root>
    </mxGraphModel>
  </diagram>
</mxfile>
